<svg width="17" height="17" viewBox="0 0 17 17" fill="none" xmlns="http://www.w3.org/2000/svg">
<path d="M16.4355 15.476L12.7799 11.8203C13.8125 10.5686 14.3736 9.01133 14.3736 7.37109C14.3736 5.49844 13.6465 3.74199 12.3217 2.41719C11.0002 1.09238 9.24043 0.365234 7.37109 0.365234C5.50176 0.365234 3.74199 1.09238 2.41719 2.41719C1.09238 3.73867 0.365234 5.49844 0.365234 7.37109C0.365234 9.24043 1.09238 11.0002 2.41719 12.325C3.73867 13.6465 5.49844 14.377 7.37109 14.377C9.01465 14.377 10.5719 13.8158 11.8203 12.7832L15.476 16.4355C15.7416 16.7012 16.1699 16.7012 16.4355 16.4355C16.7012 16.1699 16.7012 15.7416 16.4355 15.476ZM3.37676 11.3621C2.30762 10.2963 1.71992 8.87852 1.71992 7.37109C1.71992 5.86367 2.30762 4.44258 3.37344 3.37676C4.43926 2.31094 5.85703 1.72324 7.36777 1.72324C8.8752 1.72324 10.2963 2.31094 11.3621 3.37676C12.4279 4.44258 13.0156 5.86035 13.0156 7.37109C13.0156 8.87852 12.4279 10.2996 11.3621 11.3654C10.2963 12.4312 8.8752 13.0189 7.36777 13.0189C5.86035 13.0189 4.44258 12.4313 3.37676 11.3621Z" fill="black"/>
</svg>
