<svg width="54" height="54" viewBox="0 0 54 54" fill="none" xmlns="http://www.w3.org/2000/svg">
<g filter="url(#filter0_d)">
<rect x="4" y="1" width="45" height="44" rx="14" fill="white"/>
<path d="M17.34 0H36.66C44.02 0 50 5.98 50 13.34V32.66C50 36.198 48.5945 39.5911 46.0928 42.0928C43.5911 44.5945 40.198 46 36.66 46H17.34C9.98 46 4 40.02 4 32.66V13.34C4 9.80201 5.40546 6.40893 7.9072 3.9072C10.4089 1.40546 13.802 0 17.34 0V0ZM16.88 4.6C14.684 4.6 12.578 5.47235 11.0252 7.02516C9.47235 8.57796 8.6 10.684 8.6 12.88V33.12C8.6 37.697 12.303 41.4 16.88 41.4H37.12C39.316 41.4 41.422 40.5276 42.9748 38.9748C44.5276 37.422 45.4 35.316 45.4 33.12V12.88C45.4 8.303 41.697 4.6 37.12 4.6H16.88ZM39.075 8.05C39.8375 8.05 40.5688 8.3529 41.1079 8.89207C41.6471 9.43123 41.95 10.1625 41.95 10.925C41.95 11.6875 41.6471 12.4188 41.1079 12.9579C40.5688 13.4971 39.8375 13.8 39.075 13.8C38.3125 13.8 37.5812 13.4971 37.0421 12.9579C36.5029 12.4188 36.2 11.6875 36.2 10.925C36.2 10.1625 36.5029 9.43123 37.0421 8.89207C37.5812 8.3529 38.3125 8.05 39.075 8.05ZM27 11.5C30.05 11.5 32.9751 12.7116 35.1317 14.8683C37.2884 17.0249 38.5 19.95 38.5 23C38.5 26.05 37.2884 28.9751 35.1317 31.1317C32.9751 33.2884 30.05 34.5 27 34.5C23.95 34.5 21.0249 33.2884 18.8683 31.1317C16.7116 28.9751 15.5 26.05 15.5 23C15.5 19.95 16.7116 17.0249 18.8683 14.8683C21.0249 12.7116 23.95 11.5 27 11.5V11.5ZM27 16.1C25.17 16.1 23.415 16.827 22.121 18.121C20.827 19.415 20.1 21.17 20.1 23C20.1 24.83 20.827 26.585 22.121 27.879C23.415 29.173 25.17 29.9 27 29.9C28.83 29.9 30.585 29.173 31.879 27.879C33.173 26.585 33.9 24.83 33.9 23C33.9 21.17 33.173 19.415 31.879 18.121C30.585 16.827 28.83 16.1 27 16.1Z" fill="black"/>
</g>
<defs>
<filter id="filter0_d" x="0" y="0" width="54" height="54" filterUnits="userSpaceOnUse" color-interpolation-filters="sRGB">
<feFlood flood-opacity="0" result="BackgroundImageFix"/>
<feColorMatrix in="SourceAlpha" type="matrix" values="0 0 0 0 0 0 0 0 0 0 0 0 0 0 0 0 0 0 127 0"/>
<feOffset dy="4"/>
<feGaussianBlur stdDeviation="2"/>
<feColorMatrix type="matrix" values="0 0 0 0 0 0 0 0 0 0 0 0 0 0 0 0 0 0 0.25 0"/>
<feBlend mode="normal" in2="BackgroundImageFix" result="effect1_dropShadow"/>
<feBlend mode="normal" in="SourceGraphic" in2="effect1_dropShadow" result="shape"/>
</filter>
</defs>
</svg>
